<svg xmlns="http://www.w3.org/2000/svg" viewBox="0 0 800 600" width="800" height="600"><g transform="translate(540.0 282.0) rotate(0.0 97.0 124.5) scale(3.118319322328131 3.143066319961627)"><svg width="62.213" height="79.222" viewBox="0 0 62.213 79.222"><g fill="#dddee3"><path d="M0 1.222h14v78H0z"/><path d="M13.306 2.814 27.02.001l15.67 76.41-13.714 2.812z"/><path d="M25.786 4.708 39.16.571l23.049 74.514-13.374 4.137z"/></g></svg></g><g transform="translate(159.0 195.0) rotate(0.0 228.5 168.0) scale(1.3993551330612195 1.4022552939310724)"><svg width="326.579" height="239.614" viewBox="0 0 326.579 239.614"><path d="m211.401 236.459-2.215-1.128a25.026 25.026 0 0 1-13.672-22.302v-77.521h-64.45v77.521a25.026 25.026 0 0 1-13.672 22.302l-2.215 1.128c-1.563.796-.997 3.155.757 3.155h94.71c1.754 0 2.321-2.36.757-3.155z" fill="#bedbff"/><path d="M318.237 0H8.342A8.342 8.342 0 0 0 0 8.342v173.514a8.342 8.342 0 0 0 8.342 8.342h309.895a8.342 8.342 0 0 0 8.342-8.342V8.342A8.342 8.342 0 0 0 318.237 0z" fill="#a6ccf8"/><path d="M326.579 160.889H0v20.967a8.342 8.342 0 0 0 8.342 8.342h309.895a8.342 8.342 0 0 0 8.342-8.342zM11.761 11.29h303.057v138.45H11.761z" fill="#d4e7ff"/><path d="M166.539 182.551h-6.499a3.347 3.347 0 0 1-3.337-3.337v-6.499a3.347 3.347 0 0 1 3.337-3.337h6.499a3.347 3.347 0 0 1 3.337 3.337v6.499a3.347 3.347 0 0 1-3.337 3.337z" fill="#f4f9ff"/></svg></g><g transform="translate(422.0 154.0) rotate(89.99999999999994 1.0 106.0) scale(2.0 1.4723040168898274)"><svg width="1" height="143.992" viewBox="0 0 1 143.992"><path d="M0 0h1v143.992H0z" fill="#013B84"/></svg></g><g transform="translate(422.0 206.0) rotate(89.99999999999994 1.0 106.0) scale(2.0 1.4723040168898274)"><svg width="1" height="143.992" viewBox="0 0 1 143.992"><path d="M0 0h1v143.992H0z" fill="#013B84"/></svg></g><g transform="translate(422.0 258.0) rotate(89.99999999999994 1.0 106.0) scale(2.0 1.4723040168898274)"><svg width="1" height="143.992" viewBox="0 0 1 143.992"><path d="M0 0h1v143.992H0z" fill="#013B84"/></svg></g><g transform="translate(422.0 155.0) rotate(89.99999999999994 1.0 106.0) scale(2.0 1.4723040168898274)"><svg width="1" height="143.992" viewBox="0 0 1 143.992"><path d="M0 0h1v143.992H0z" fill="#013B84"/></svg></g><g transform="translate(422.0 207.0) rotate(89.99999999999994 1.0 106.0) scale(2.0 1.4723040168898274)"><svg width="1" height="143.992" viewBox="0 0 1 143.992"><path d="M0 0h1v143.992H0z" fill="#013B84"/></svg></g><g transform="translate(422.0 259.0) rotate(89.99999999999994 1.0 106.0) scale(2.0 1.4723040168898274)"><svg width="1" height="143.992" viewBox="0 0 1 143.992"><path d="M0 0h1v143.992H0z" fill="#013B84"/></svg></g><g transform="translate(422.0 156.0) rotate(89.99999999999994 1.0 106.0) scale(2.0 1.4723040168898274)"><svg width="1" height="143.992" viewBox="0 0 1 143.992"><path d="M0 0h1v143.992H0z" fill="#013B84"/></svg></g><g transform="translate(422.0 208.0) rotate(89.99999999999994 1.0 106.0) scale(2.0 1.4723040168898274)"><svg width="1" height="143.992" viewBox="0 0 1 143.992"><path d="M0 0h1v143.992H0z" fill="#013B84"/></svg></g><g transform="translate(422.0 261.0) rotate(89.99999999999994 1.0 106.0) scale(2.0 1.4723040168898274)"><svg width="1" height="143.992" viewBox="0 0 1 143.992"><path d="M0 0h1v143.992H0z" fill="#013B84"/></svg></g><g transform="translate(461.0 483.0) rotate(0.0 111.0 24.0) scale(3.9647813119497077 3.7128712871287126)"><svg width="55.993" height="12.928" viewBox="0 0 55.993 12.928"><path d="M0 0h55.993v12.928H0z" fill="#5ea6ff"/><g fill="#93c3ff"><path d="M8.749 0h3.5v12.928h-3.5zm34.996 0h3.5v12.928h-3.5zM17.498 3.878h20.997v5.171H17.498z"/></g></svg></g><g transform="translate(76.0 109.0) rotate(0.0 90.0 90.0) scale(2.5714285714285716 2.5714285714285716)"><svg width="70" height="70" viewBox="0 0 70 70"><circle cx="35" cy="35" fill="#fff" r="32"/><path d="M35 3v32h32C67 17.3 52.7 3 35 3z" fill="#93c3ff"/><path d="M35 70C15.701 70 0 54.299 0 35S15.701 0 35 0s35 15.701 35 35-15.701 35-35 35zm0-64C19.009 6 6 19.01 6 35s13.009 29 29 29 29-13.01 29-29S50.991 6 35 6z" fill="#016eea"/><path d="M52 37H35a2 2 0 0 1-2-2V13a2 2 0 0 1 4 0v20h15a2 2 0 0 1 0 4z" fill="#013b84"/></svg></g><g transform="translate(256.0 235.0) rotate(0.0 23.5 72.0) scale(1.6206896551724137 1.606318184860451)"><svg width="29" height="89.646" viewBox="0 0 29 89.646"><path d="M20.792 25.646H0V4.855h20.792zM3 22.646h14.792V7.855H3z" fill="#013B84"/><path d="M13.221 24.19 5.953 11.471l3.473-1.985 4.188 7.329L25.757 0 29 2.342z" fill="#2888ff"/><path d="M20.792 57.646H0V36.855h20.792zM3 54.646h14.792V39.855H3zm17.792 35H0V68.855h20.792zM3 86.646h14.792V71.855H3z" fill="#013B84"/><g fill="#2888ff"><path d="M8.515 71.44 20.73 83.655l-2.83 2.828L5.687 74.27z"/><path d="m23.067 68.161 2.828 2.828L8.844 88.041l-2.829-2.828z"/></g></svg></g><g transform="translate(116.0 490.0) rotate(0.0 83.0 20.5) scale(2.585226830293875 2.4143210458132143)"><svg width="64.211" height="16.982" viewBox="0 0 64.211 16.982"><path d="M55.721 15.655H0c5.165 0 5.165-14.328 0-14.328h55.721a7.165 7.165 0 0 1 0 14.328z" fill="#eff0f2"/><path d="M55.721 16.982H0v-2.653h55.721a5.844 5.844 0 0 0 5.837-5.838 5.844 5.844 0 0 0-5.837-5.837H0V0h55.721c4.682 0 8.491 3.809 8.491 8.491s-3.81 8.491-8.491 8.491z" fill="#e8e9ec"/></svg></g></svg>