<svg xmlns="http://www.w3.org/2000/svg" viewBox="0 0 1000 1000" width="1000" height="1000"><g transform="translate(299.0 151.0) rotate(0.0 177.5 247.0) translate(0.0 0.0) scale(0.9658523579040732 0.9651359298225048)"><svg width="359.268" height="510.809" viewBox="0 0 359.268 510.809"><path d="m2.934 505.43 359.818 6.415 2.15-431.834 2.649-67.49-349.326-1.493z" fill="#171b1b"/><path d="m0 504.379 353.537.73s-.452-173.248.472-228.82c.942-56.656-5.798-97.494.322-155.988 1.207-11.536.096-46.396.096-46.396 1.056-28.219-1.534-54.128-14.955-73.175L1.041 0z" fill="#fff"/><g fill="#ed5580"><path d="m26.363 392.38 305.77 1.009-.003 1-305.77-1.01zm-1.088-62.402 305.77 1.01-.004 1-305.77-1.01zm-1.09-62.4 305.77 1.01-.004 1-305.77-1.01zm-1.09-62.401 305.77 1.009-.004 1-305.77-1.01zm-1.089-62.401 305.77 1.009-.004 1-305.77-1.01zm-1.09-62.401 305.77 1.009-.003 1-305.77-1.01z"/></g></svg></g><g transform="translate(197.0 487.0) rotate(0.0 149.0 149.0) scale(1.5111561866125762 1.5111561866125762)"><svg width="197.2" height="197.2" viewBox="0 0 197.2 197.2"><circle cx="98.6" cy="98.6" fill="#171B1B" r="98.6"/></svg></g><g transform="translate(194.0 141.0) rotate(0.0 230.0 293.0) scale(0.9997913478926137 0.9993792251911782)"><svg width="460.096" height="586.364" viewBox="0 0 460.096 586.364"><path d="M455.892 523.22 89.356 586.374-.021 67.644 366.515 4.49z" fill="#ED5580"/><path d="m333.136 264.092-215.145 37.207a6.471 6.471 0 0 1-7.542-5.727l-5.443-53.933 222.767-40.396a4.568 4.568 0 0 1 5.317 3.719l8.196 47.577c.938 5.441-2.71 10.612-8.15 11.553z" fill="#171B1B"/><path d="m100.249 243.473 8.489 49.274a6 6 0 0 0 6.932 4.894l82.043-14.134-31.676-57.456-60.893 10.49a6 6 0 0 0-4.895 6.932z" fill="#fff"/><path d="m322.935 199.021-156.899 27.03 31.676 57.456 135.748-23.386a6 6 0 0 0 4.894-6.932l-8.489-49.274a5.999 5.999 0 0 0-6.93-4.894z" fill="#ED5580"/><path d="m342.612 22.299-14.032 2.417c-7.338 1.264-14.311-3.659-15.575-10.997l53.524-9.221 9.221 53.524c-7.338 1.264-14.311-3.659-15.575-10.997l-2.417-14.032c-1.229-7.135-8.01-11.923-15.146-10.694z" fill="#171B1B"/><path d="m358.032 16.286-28.183 4.855c-7.673 1.322-14.964-3.827-16.286-11.499L369.531 0l9.642 55.968c-7.673 1.322-14.964-3.827-16.286-11.499z" fill="#ED5580"/><path d="m427.267 513.689-14.032 2.417c-7.338 1.264-12.261 8.237-10.997 15.575l53.524-9.221-9.221-53.524c-7.338 1.264-12.261 8.237-10.997 15.575l2.417 14.032c1.23 7.136-3.558 13.917-10.694 15.146z" fill="#171B1B"/><path d="m443.81 514.196-28.183 4.855c-7.673 1.322-12.821 8.613-11.499 16.286l55.969-9.642-9.642-55.969c-7.673 1.322-12.821 8.613-11.499 16.286zM173.832 245.302a9.36 9.36 0 0 0-5.563 3.18 8.784 8.784 0 0 0-6.088-1.173l-12.275 2.115 4.738 27.503 6.318-1.088-3.65-21.186 5.957-1.026a2.418 2.418 0 0 1 2.791 1.97l.099.574 3.141 18.232 6.317-1.088-3.141-18.232a3 3 0 0 1 2.444-3.463l3.005-.518a2.418 2.418 0 0 1 2.791 1.97l3.24 18.805 6.318-1.088-.194-1.124-13.676-24.806z" fill="#ED5580"/><g fill="#171B1B"><path d="m246.875 232.719-12.276 2.115 4.738 27.503 6.318-1.088-3.65-21.186 5.958-1.026a2.418 2.418 0 0 1 2.791 1.97l3.24 18.805 6.317-1.088-3.24-18.805c-.826-4.797-5.4-8.027-10.196-7.2zm43.597 12.58a2.418 2.418 0 0 1-1.971 2.79l-3.652.629a2.342 2.342 0 0 1-2.702-1.908l-3.253-18.882-6.317 1.088 3.253 18.882c.819 4.754 5.353 7.956 10.107 7.137l3.652-.629c4.796-.826 8.027-5.4 7.201-10.196l-3.24-18.805-6.318 1.088zm-81.867 14.103-.488-2.832 11.788-2.031-1.088-6.318-11.788 2.031-.287-1.664a2.417 2.417 0 0 1 1.97-2.79l11.68-2.012-1.088-6.317-11.68 2.012c-4.796.826-8.025 5.4-7.199 10.196l1.863 10.814c.826 4.796 5.402 8.026 10.198 7.2l12.026-2.072-1.088-6.317-12.026 2.072a2.422 2.422 0 0 1-2.793-1.972zm-31.768-14.617-.432.074 13.676 24.806-3.046-17.681c-.827-4.797-5.402-8.026-10.198-7.199z"/></g></svg></g><g transform="translate(194.0 484.0) rotate(0.0 147.0 148.5) scale(0.9980717525325222 0.9992429977289932)"><svg width="294.568" height="297.225" viewBox="0 0 294.568 297.225"><circle cx="151.311" cy="153.969" fill="#171B1B" r="143.257"/><path d="M286.507 143.254c0 22.452-5.164 43.695-14.369 62.605a141.178 141.178 0 0 1-9.46 16.534c-25.651 38.642-69.567 64.115-119.425 64.115C64.137 286.507 0 222.37 0 143.254S64.137 0 143.253 0s143.254 64.137 143.254 143.254z" fill="#fff"/><circle cx="165.549" cy="169.063" fill="#ED5580" r="88.852"/><path d="M226.547 143.251c0 .511 0 1.01-.011 1.521-.811 45.304-37.787 81.77-83.281 81.77-42.962 0-78.317-32.513-82.803-74.275a83.502 83.502 0 0 1-.489-9.017c0-46.004 37.288-83.292 83.292-83.292s83.292 37.289 83.292 83.293z" fill="#171B1B"/><path d="M147.529 129.096c20.05 0 38.063 6.938 50.494 17.97 6.757 5.996 17.42 1.412 17.447-7.622a69.27 69.27 0 0 0-.171-5.073c-2.355-33.444-29.254-60.462-62.692-62.891-39.817-2.893-73.018 28.554-73.018 67.756l.001.323c.042 8.98 10.73 13.467 17.447 7.506 12.429-11.031 30.442-17.969 50.492-17.969z" fill="#ED5580"/><path d="M145.588 232.711c-49.475 0-89.726-36.251-89.726-85.726s40.251-89.727 89.726-89.727c49.476 0 87.727 40.252 87.727 89.727s-38.251 85.726-87.727 85.726zm3.485-154.342c-39.757 0-72.101 31.726-72.101 70.723 0 38.996 32.344 70.722 72.101 70.722s72.102-31.726 72.102-70.722c0-38.997-32.345-70.723-72.102-70.723z" fill="#171B1B"/><path d="m269.541 129.012-39.499 14.974a7.197 7.197 0 0 1-9.281-4.178l-3.166-8.352a7.197 7.197 0 0 1 4.178-9.281l39.499-14.974a7.197 7.197 0 0 1 9.281 4.178l3.166 8.352a7.197 7.197 0 0 1-4.178 9.281z" fill="#ED5580"/><g fill="#fff"><path d="m267.713 110.555-39.499 14.974a7.197 7.197 0 0 1-9.281-4.178l-3.166-8.352a7.197 7.197 0 0 1 4.178-9.281l39.499-14.974a7.197 7.197 0 0 1 9.281 4.178l3.166 8.352a7.197 7.197 0 0 1-4.178 9.281z"/><path d="M143.255 237.644c-52.048 0-94.393-42.344-94.393-94.392s42.345-94.393 94.393-94.393c52.049 0 94.393 42.345 94.393 94.393s-42.344 94.392-94.393 94.392zm0-166.577c-39.803 0-72.185 32.382-72.185 72.185 0 39.802 32.382 72.184 72.185 72.184s72.185-32.382 72.185-72.184c0-39.803-32.382-72.185-72.185-72.185z"/></g></svg></g><g transform="translate(601.0 394.0) rotate(10.262530509540417 107.0 219.0) scale(1.0684294087691093 1.0686523756776671)"><svg width="200.294" height="409.862" viewBox="0 0 200.294 409.862"><path d="M194.79 32.145v345.57c0 14.69-11.95 26.65-26.64 26.65h-136c-14.7 0-26.65-11.96-26.65-26.65V32.145c0-14.69 11.95-26.65 26.65-26.65h136c14.69 0 26.64 11.96 26.64 26.65z" fill="#171B1B"/><g fill="#ED5580"><path d="M194.79 32.145v345.57c0 14.69-11.95 26.65-26.64 26.65h-22.87l-33.912-128.897-11.835-6.978.017-37.939L40.34 5.495h127.81c14.69 0 26.64 11.96 26.64 26.65z"/><path d="m63.677 162.913 7.07 7.07a41.58 41.58 0 0 1 10.813-7.807l.508-5.672-3.094-4.158a51.47 51.47 0 0 0-15.297 10.567zm14.56 14.56 7.07 7.08h.01a21.33 21.33 0 0 1 1.726-1.537l.601-5.315-3.308-4.971a30.983 30.983 0 0 0-6.099 4.743z"/></g><path d="m129.547 169.982 7.07-7.07c-10.07-10.08-23.27-15.11-36.47-15.11a51.602 51.602 0 0 0-21.173 4.543l2.586 9.83a41.396 41.396 0 0 1 18.587-4.373c11.11.001 21.55 4.321 29.4 12.18zm-14.57 14.571 7.07-7.07v-.01c-6.04-6.05-13.97-9.07-21.9-9.07a30.954 30.954 0 0 0-15.811 4.327l2.707 10.286a20.762 20.762 0 0 1 13.104-4.613 20.798 20.798 0 0 1 14.83 6.15zm-22.17 7.489 7.07 7.07c.04-.03.11-.11.27-.11.15 0 .23.08.27.11l7.07-7.07a10.393 10.393 0 0 0-7.34-3.04c-2.66 0-5.31 1.02-7.34 3.04z" fill="#fff"/><path d="M50.936 230.179v45.061h60.37l-.25-23.756-11.605-21.305z" fill="#ED5580"/><path d="M149.358 230.179H99.451l2.989 11.36 3.55 1.695 1.629 17.991 3.687 14.015h38.052z" fill="#fff"/><path d="M168.148 11c11.66 0 21.146 9.486 21.146 21.146v345.57c0 11.66-9.486 21.146-21.146 21.146H32.146c-11.66 0-21.146-9.486-21.146-21.146V32.146C11 20.486 20.486 11 32.146 11zm0-9H32.146C14.392 2 2 14.393 2 32.146v345.57c0 17.754 12.392 30.146 30.146 30.146h136.002c17.753 0 30.146-12.392 30.146-30.146V32.146C198.294 14.393 185.902 2 168.148 2z" fill="#171B1B"/><path d="M168.148 4c15.52 0 28.146 12.626 28.146 28.146v345.57c0 15.52-12.626 28.146-28.146 28.146H32.146C16.626 405.862 4 393.235 4 377.716V32.146C4 16.626 16.626 4 32.146 4zm0-4H32.146C14.392 0 0 14.393 0 32.146v345.57c0 17.754 14.392 32.146 32.146 32.146h136.002c17.753 0 32.146-14.392 32.146-32.146V32.146C200.294 14.393 185.902 0 168.148 0z" fill="#ED5580"/><path d="M78.714 241.539h-9.999v21.769h5v-16.769h4.999a1.603 1.603 0 0 1 0 3.203h-2.828v5h2.828c3.64 0 6.601-2.961 6.601-6.601s-2.961-6.602-6.601-6.602z" fill="#171B1B"/><path d="M126.579 241.535v7.46a1.887 1.887 0 0 1-1.884 1.885h-2.892a1.826 1.826 0 0 1-1.824-1.824v-7.521h-5v7.521c0 3.318 2.382 6.088 5.525 6.697v7.555h5v-7.479c3.415-.403 6.074-3.312 6.074-6.833v-7.46z" fill="#ED5580"/><path d="m102.439 241.539 5.114 19.435v-19.435z" fill="#171B1B"/><path d="m102.439 241.539 2.455 14.329 2.659 5.106v-19.435z" fill="#ED5580"/><path d="M97.837 241.539c-3.796 0-6.884 3.089-6.884 6.885v14.884h5v-14.884c0-1.039.845-1.885 1.884-1.885h4.716v3.202h-4.429v5h2.544c1.039 0 1.885.845 1.885 1.884v6.432h5v-2.083l-5.113-19.435z" fill="#171B1B"/></svg></g></svg>